<?xml version="1.0" encoding="UTF-8" standalone="no"?>
<svg
   xmlns:dc="http://purl.org/dc/elements/1.1/"
   xmlns:cc="http://creativecommons.org/ns#"
   xmlns:rdf="http://www.w3.org/1999/02/22-rdf-syntax-ns#"
   xmlns:svg="http://www.w3.org/2000/svg"
   xmlns="http://www.w3.org/2000/svg"
   xmlns:sodipodi="http://sodipodi.sourceforge.net/DTD/sodipodi-0.dtd"
   xmlns:inkscape="http://www.inkscape.org/namespaces/inkscape"
   width="294.8663mm"
   height="288.21515mm"
   viewBox="0 0 294.8663 288.21515"
   version="1.1"
   id="svg8"
   inkscape:export-filename="C:\Users\MOUAD2\Documents\banner.png"
   inkscape:export-xdpi="96"
   inkscape:export-ydpi="96"
   inkscape:version="1.0.2-2 (e86c870879, 2021-01-15)"
   sodipodi:docname="partnericon.svg">
  <defs
     id="defs2">
    <clipPath
       clipPathUnits="userSpaceOnUse"
       id="clipPath849">
      <rect
         style="fill:#0000ff;fill-rule:evenodd;stroke-width:0.264583"
         id="rect851"
         width="403.67856"
         height="84.65493"
         x="-43.111301"
         y="96.412552" />
    </clipPath>
    <rect
       x="76.816513"
       y="81.215622"
       width="213.98883"
       height="106.12259"
       id="rect855" />
    <clipPath
       clipPathUnits="userSpaceOnUse"
       id="clipPath849-8">
      <rect
         style="fill:#0000ff;fill-rule:evenodd;stroke-width:0.264583"
         id="rect851-6"
         width="76.816505"
         height="81.519554"
         x="-54.085091"
         y="74.464981"
         rx="1.0000006" />
    </clipPath>
    <rect
       x="76.816513"
       y="81.215622"
       width="213.98883"
       height="106.12259"
       id="rect871" />
    <rect
       x="76.816513"
       y="81.215622"
       width="213.98883"
       height="106.12259"
       id="rect879" />
    <rect
       x="76.816513"
       y="81.215622"
       width="213.98883"
       height="106.12259"
       id="rect887" />
    <rect
       x="76.816513"
       y="81.215622"
       width="213.98883"
       height="106.12259"
       id="rect908" />
    <rect
       x="76.816513"
       y="81.215622"
       width="347.0025"
       height="122.52956"
       id="rect916" />
    <rect
       x="76.816513"
       y="81.215622"
       width="347.0025"
       height="122.52956"
       id="rect924" />
  </defs>
  <sodipodi:namedview
     id="base"
     pagecolor="#ffffff"
     bordercolor="#666666"
     borderopacity="1.0"
     inkscape:pageopacity="0.0"
     inkscape:pageshadow="2"
     inkscape:zoom="0.11934082"
     inkscape:cx="727.87789"
     inkscape:cy="549.75424"
     inkscape:document-units="mm"
     inkscape:current-layer="layer1"
     inkscape:document-rotation="0"
     showgrid="false"
     inkscape:window-width="1366"
     inkscape:window-height="709"
     inkscape:window-x="-8"
     inkscape:window-y="-8"
     inkscape:window-maximized="1" />
  <metadata
     id="metadata5">
    <rdf:RDF>
      <cc:Work
         rdf:about="">
        <dc:format>image/svg+xml</dc:format>
        <dc:type
           rdf:resource="http://purl.org/dc/dcmitype/StillImage" />
        <dc:title></dc:title>
      </cc:Work>
    </rdf:RDF>
  </metadata>
  <g
     inkscape:label="Layer 1"
     inkscape:groupmode="layer"
     id="layer1"
     transform="translate(39.591301,24.484468)">
    <rect
       style="fill:#ffffff;fill-opacity:1;fill-rule:evenodd;stroke-width:0.177956"
       id="rect1708"
       width="210.61879"
       height="205.86797"
       x="2.5324523"
       y="16.689119"
       ry="42.757195" />
    <path
       style="fill:#0ba500;fill-opacity:1;stroke:none;stroke-width:0.201211px;stroke-linecap:butt;stroke-linejoin:miter;stroke-opacity:1"
       d="M 99.574411,167.45225 99.363658,147.0092 133.29491,127.83066 c 0,0 12.64518,-7.79786 4.42581,-12.64519 -8.21937,-4.84732 -50.159237,-28.662414 -50.159237,-28.662414 0,0 -8.219372,-4.636568 -8.008619,5.268827 0.210754,9.905397 0.210754,77.978647 0.210754,77.978647 0,0 -0.421507,14.3312 -10.74841,14.3312 -10.326898,0 -11.16991,-12.43442 -11.16991,-12.43442 L 57.634545,71.138081 c 0,0 0.421506,-12.012927 5.058073,-14.96347 4.636568,-2.950543 12.645184,0.843013 14.541962,1.896778 1.896778,1.053765 87.04103,50.159231 87.04103,50.159231 0,0 6.95485,4.84732 7.58712,10.95917 0.63225,6.11184 -8.64088,12.01292 -8.64088,12.01292 z"
       id="path1702" />
  </g>
</svg>
