<?xml version="1.0" encoding="UTF-8" standalone="no"?>
<svg
   xmlns:dc="http://purl.org/dc/elements/1.1/"
   xmlns:cc="http://creativecommons.org/ns#"
   xmlns:rdf="http://www.w3.org/1999/02/22-rdf-syntax-ns#"
   xmlns:svg="http://www.w3.org/2000/svg"
   xmlns="http://www.w3.org/2000/svg"
   xmlns:sodipodi="http://sodipodi.sourceforge.net/DTD/sodipodi-0.dtd"
   xmlns:inkscape="http://www.inkscape.org/namespaces/inkscape"
   width="239.09207mm"
   height="269.99829mm"
   viewBox="0 0 239.09207 269.99829"
   version="1.1"
   id="svg8"
   inkscape:export-filename="C:\Users\MOUAD2\Documents\banner.png"
   inkscape:export-xdpi="96"
   inkscape:export-ydpi="96"
   inkscape:version="1.0.2-2 (e86c870879, 2021-01-15)"
   sodipodi:docname="partner.svg">
  <defs
     id="defs2">
    <clipPath
       clipPathUnits="userSpaceOnUse"
       id="clipPath849">
      <rect
         style="fill:#0000ff;fill-rule:evenodd;stroke-width:0.264583"
         id="rect851"
         width="403.67856"
         height="84.65493"
         x="-43.111301"
         y="96.412552" />
    </clipPath>
    <rect
       x="76.816513"
       y="81.215622"
       width="213.98883"
       height="106.12259"
       id="rect855" />
    <clipPath
       clipPathUnits="userSpaceOnUse"
       id="clipPath849-8">
      <rect
         style="fill:#0000ff;fill-rule:evenodd;stroke-width:0.264583"
         id="rect851-6"
         width="76.816505"
         height="81.519554"
         x="-54.085091"
         y="74.464981"
         rx="1.0000006" />
    </clipPath>
    <rect
       x="76.816513"
       y="81.215622"
       width="213.98883"
       height="106.12259"
       id="rect871" />
    <rect
       x="76.816513"
       y="81.215622"
       width="213.98883"
       height="106.12259"
       id="rect879" />
    <rect
       x="76.816513"
       y="81.215622"
       width="213.98883"
       height="106.12259"
       id="rect887" />
    <rect
       x="76.816513"
       y="81.215622"
       width="213.98883"
       height="106.12259"
       id="rect908" />
    <rect
       x="76.816513"
       y="81.215622"
       width="347.0025"
       height="122.52956"
       id="rect916" />
    <rect
       x="76.816513"
       y="81.215622"
       width="347.0025"
       height="122.52956"
       id="rect924" />
  </defs>
  <sodipodi:namedview
     id="base"
     pagecolor="#ffffff"
     bordercolor="#666666"
     borderopacity="1.0"
     inkscape:pageopacity="0.0"
     inkscape:pageshadow="2"
     inkscape:zoom="0.33754682"
     inkscape:cx="1240.5738"
     inkscape:cy="564.65421"
     inkscape:document-units="mm"
     inkscape:current-layer="layer1"
     inkscape:document-rotation="0"
     showgrid="false"
     inkscape:window-width="1366"
     inkscape:window-height="709"
     inkscape:window-x="-8"
     inkscape:window-y="-8"
     inkscape:window-maximized="1" />
  <metadata
     id="metadata5">
    <rdf:RDF>
      <cc:Work
         rdf:about="">
        <dc:format>image/svg+xml</dc:format>
        <dc:type
           rdf:resource="http://purl.org/dc/dcmitype/StillImage" />
        <dc:title></dc:title>
      </cc:Work>
    </rdf:RDF>
  </metadata>
  <g
     inkscape:label="Layer 1"
     inkscape:groupmode="layer"
     id="layer1"
     transform="translate(12.986824,11.18223)">
    <path
       style="fill:#0ba500;fill-opacity:1;stroke:none;stroke-width:0.281696px;stroke-linecap:butt;stroke-linejoin:miter;stroke-opacity:1"
       d="M 96.267436,187.69242 95.972381,159.07215 143.47613,132.2222 c 0,0 17.70326,-10.917 6.19614,-17.70326 -11.50712,-6.78625 -70.222933,-40.127382 -70.222933,-40.127382 0,0 -11.50712,-6.491195 -11.212066,7.376358 0.295055,13.867552 0.295055,109.170104 0.295055,109.170104 0,0 -0.590109,20.06368 -15.047773,20.06368 -14.457656,0 -15.637873,-17.40819 -15.637873,-17.40819 L 37.551626,52.852593 c 0,0 0.590108,-16.818097 7.081301,-20.948857 6.491196,-4.130759 17.703257,1.180218 20.358746,2.655489 2.655489,1.475271 121.857437,70.222925 121.857437,70.222925 0,0 9.73679,6.78625 10.62197,15.34283 0.88515,8.55658 -12.09724,16.81809 -12.09724,16.81809 z"
       id="path1702" />
  </g>
</svg>
